<svg xmlns="http://www.w3.org/2000/svg" xmlns:xlink="http://www.w3.org/1999/xlink" width="349" zoomAndPan="magnify" viewBox="0 0 261.75 80.999996" height="108" preserveAspectRatio="xMidYMid meet" version="1.0"><defs><g/><clipPath id="32d9e0351a"><path d="M 0 0.0390625 L 261.5 0.0390625 L 261.5 80.960938 L 0 80.960938 Z M 0 0.0390625 " clip-rule="nonzero"/></clipPath><clipPath id="f81cc81ade"><path d="M 210.828125 38.863281 L 261.066406 38.863281 L 261.066406 80.328125 L 210.828125 80.328125 Z M 210.828125 38.863281 " clip-rule="nonzero"/></clipPath><clipPath id="08971accf7"><path d="M 97.800781 15.273438 L 230 15.273438 L 230 74 L 97.800781 74 Z M 97.800781 15.273438 " clip-rule="nonzero"/></clipPath><clipPath id="a4f5fba4f0"><path d="M 92.476562 19 L 126 19 L 126 35 L 92.476562 35 Z M 92.476562 19 " clip-rule="nonzero"/></clipPath><clipPath id="4699098338"><path d="M 127 63 L 138.183594 63 L 138.183594 73.703125 L 127 73.703125 Z M 127 63 " clip-rule="nonzero"/></clipPath><clipPath id="dd6bb1b07a"><path d="M 123 15.257812 L 135 15.257812 L 135 26 L 123 26 Z M 123 15.257812 " clip-rule="nonzero"/></clipPath></defs><g clip-path="url(#32d9e0351a)">
<path fill="none" d="M 0 0.0390625 L 261.5 0.0390625 L 261.5 80.960938 L 0 80.960938 Z M 0 0.0390625 " fill-opacity="1" fill-rule="nonzero"/></g><g clip-path="url(#f81cc81ade)"><path fill="#2cb3ed" d="M 260.875 61.230469 C 260.21875 56.84375 257.886719 52.96875 254.316406 50.339844 C 250.96875 47.863281 242.265625 43.5 233.5 40.476562 C 232.089844 39.992188 230.742188 39.5625 229.46875 39.183594 L 229.839844 39.570312 L 229.855469 39.589844 L 229.875 39.605469 C 231.175781 41.035156 231.804688 42.835938 231.75 44.621094 C 231.847656 44.660156 231.9375 44.6875 232.035156 44.722656 C 240.28125 47.566406 248.636719 51.71875 251.648438 53.945312 C 254.253906 55.867188 255.957031 58.691406 256.441406 61.894531 C 256.925781 65.109375 256.128906 68.300781 254.207031 70.914062 C 251.832031 74.125 248.152344 75.832031 244.425781 75.832031 C 241.925781 75.832031 239.402344 75.058594 237.238281 73.46875 C 234.160156 71.199219 227.648438 64.488281 222.488281 57.605469 C 222.390625 57.472656 222.289062 57.335938 222.203125 57.210938 C 222.003906 56.960938 221.824219 56.71875 221.652344 56.476562 C 221.476562 56.222656 221.296875 55.980469 221.125 55.738281 C 219.554688 53.53125 218.378906 51.640625 217.507812 50.035156 C 217.355469 49.746094 217.203125 49.46875 217.070312 49.199219 C 216.917969 48.894531 216.773438 48.597656 216.648438 48.320312 C 215.140625 45.089844 215.148438 43.347656 215.605469 42.71875 C 215.875 42.351562 216.496094 42.082031 217.363281 41.949219 C 216.546875 40.351562 215.003906 39.183594 213.175781 38.878906 C 212.71875 39.222656 212.332031 39.605469 212 40.054688 C 210.285156 42.371094 210.492188 45.789062 212.65625 50.382812 C 212.789062 50.660156 212.925781 50.949219 213.074219 51.234375 C 213.210938 51.515625 213.355469 51.792969 213.515625 52.078125 C 214.628906 54.167969 216.117188 56.484375 217.957031 59.023438 C 218.128906 59.257812 218.308594 59.507812 218.496094 59.75 C 218.621094 59.929688 218.765625 60.117188 218.898438 60.296875 C 218.945312 60.359375 218.988281 60.414062 219.035156 60.476562 C 224.480469 67.71875 231.203125 74.582031 234.574219 77.078125 C 238.128906 79.699219 242.515625 80.800781 246.921875 80.136719 C 251.308594 79.472656 255.175781 77.148438 257.816406 73.578125 C 260.453125 70.007812 261.539062 65.621094 260.875 61.230469 " fill-opacity="1" fill-rule="nonzero"/></g><g clip-path="url(#08971accf7)"><path fill="#2cb3ed" d="M 212.207031 52.195312 C 208.007812 52.195312 204.605469 48.796875 204.605469 44.597656 C 204.605469 40.394531 208.007812 36.996094 212.207031 36.996094 C 212.90625 36.996094 213.578125 37.09375 214.226562 37.273438 C 214.457031 37.328125 214.683594 37.410156 214.90625 37.488281 C 215.121094 37.570312 215.335938 37.660156 215.535156 37.765625 C 217.25 38.59375 218.59375 40.054688 219.285156 41.839844 C 219.347656 41.984375 219.402344 42.136719 219.445312 42.289062 C 219.5 42.441406 219.535156 42.59375 219.574219 42.746094 C 219.726562 43.339844 219.804688 43.957031 219.804688 44.597656 C 219.804688 46.390625 219.1875 48.03125 218.15625 49.332031 C 218.980469 50.894531 220.148438 52.796875 221.761719 55.085938 L 228.546875 48.078125 C 229.363281 47.1875 229.820312 46.09375 229.925781 44.972656 C 229.945312 44.820312 229.953125 44.660156 229.953125 44.507812 C 229.953125 44.34375 229.945312 44.191406 229.9375 44.03125 C 229.847656 42.871094 229.386719 41.742188 228.546875 40.816406 L 226.113281 38.304688 L 225.546875 37.722656 L 225 37.15625 L 205.421875 16.921875 C 204.398438 15.875 203.007812 15.28125 201.546875 15.28125 L 103.183594 15.28125 C 100.214844 15.28125 97.800781 17.695312 97.800781 20.664062 L 97.800781 68.222656 C 97.800781 71.199219 100.214844 73.605469 103.183594 73.605469 L 201.546875 73.605469 C 203.007812 73.605469 204.398438 73.011719 205.421875 71.972656 L 217.328125 59.671875 C 215.328125 56.933594 213.738281 54.4375 212.566406 52.1875 C 212.449219 52.195312 212.320312 52.195312 212.207031 52.195312 " fill-opacity="1" fill-rule="nonzero"/></g><g fill="#ffde59" fill-opacity="1"><g transform="translate(13.102854, 55.071095)"><g><path d="M 9.90625 -24.578125 L 0.1875 -24.578125 L 0.1875 -31.671875 L 28.546875 -31.671875 L 28.546875 -24.578125 L 18.875 -24.578125 L 18.875 0 L 9.90625 0 Z M 9.90625 -24.578125 "/></g></g></g><g fill="#ffde59" fill-opacity="1"><g transform="translate(37.808317, 55.071095)"><g><path d="M 13.21875 -24.9375 C 17.289062 -24.9375 20.394531 -24.003906 22.53125 -22.140625 C 24.675781 -20.285156 25.75 -17.445312 25.75 -13.625 L 25.75 0 L 17.734375 0 L 17.734375 -3.171875 C 16.492188 -0.785156 14.082031 0.40625 10.5 0.40625 C 8.59375 0.40625 6.945312 0.078125 5.5625 -0.578125 C 4.175781 -1.242188 3.128906 -2.144531 2.421875 -3.28125 C 1.710938 -4.414062 1.359375 -5.707031 1.359375 -7.15625 C 1.359375 -9.476562 2.25 -11.28125 4.03125 -12.5625 C 5.8125 -13.84375 8.554688 -14.484375 12.265625 -14.484375 L 17.15625 -14.484375 C 17 -17.078125 15.265625 -18.375 11.953125 -18.375 C 10.773438 -18.375 9.582031 -18.179688 8.375 -17.796875 C 7.164062 -17.421875 6.140625 -16.90625 5.296875 -16.25 L 2.390625 -22.078125 C 3.753906 -22.984375 5.40625 -23.6875 7.34375 -24.1875 C 9.289062 -24.6875 11.25 -24.9375 13.21875 -24.9375 Z M 12.890625 -5.015625 C 13.890625 -5.015625 14.765625 -5.253906 15.515625 -5.734375 C 16.273438 -6.222656 16.820312 -6.9375 17.15625 -7.875 L 17.15625 -10 L 13.4375 -10 C 10.9375 -10 9.6875 -9.171875 9.6875 -7.515625 C 9.6875 -6.753906 9.972656 -6.144531 10.546875 -5.6875 C 11.117188 -5.238281 11.898438 -5.015625 12.890625 -5.015625 Z M 12.890625 -5.015625 "/></g></g></g><g fill="#ffde59" fill-opacity="1"><g transform="translate(62.197035, 55.071095)"><g><path d="M 29.140625 -24.53125 L 29.140625 -4.484375 C 29.140625 0.078125 27.898438 3.492188 25.421875 5.765625 C 22.953125 8.046875 19.394531 9.1875 14.75 9.1875 C 12.332031 9.1875 10.066406 8.914062 7.953125 8.375 C 5.847656 7.832031 4.054688 7.03125 2.578125 5.96875 L 5.703125 -0.046875 C 6.691406 0.765625 7.945312 1.40625 9.46875 1.875 C 11 2.34375 12.503906 2.578125 13.984375 2.578125 C 16.242188 2.578125 17.898438 2.078125 18.953125 1.078125 C 20.015625 0.0859375 20.546875 -1.382812 20.546875 -3.34375 L 20.546875 -4.15625 C 18.890625 -2.226562 16.460938 -1.265625 13.265625 -1.265625 C 11.085938 -1.265625 9.078125 -1.753906 7.234375 -2.734375 C 5.398438 -3.710938 3.9375 -5.097656 2.84375 -6.890625 C 1.757812 -8.691406 1.21875 -10.769531 1.21875 -13.125 C 1.21875 -15.445312 1.757812 -17.503906 2.84375 -19.296875 C 3.9375 -21.085938 5.398438 -22.472656 7.234375 -23.453125 C 9.078125 -24.441406 11.085938 -24.9375 13.265625 -24.9375 C 16.753906 -24.9375 19.316406 -23.800781 20.953125 -21.53125 L 20.953125 -24.53125 Z M 15.296875 -8.09375 C 16.835938 -8.09375 18.113281 -8.5625 19.125 -9.5 C 20.132812 -10.4375 20.640625 -11.644531 20.640625 -13.125 C 20.640625 -14.601562 20.140625 -15.800781 19.140625 -16.71875 C 18.140625 -17.632812 16.859375 -18.09375 15.296875 -18.09375 C 13.722656 -18.09375 12.429688 -17.632812 11.421875 -16.71875 C 10.410156 -15.800781 9.90625 -14.601562 9.90625 -13.125 C 9.90625 -11.644531 10.414062 -10.4375 11.4375 -9.5 C 12.46875 -8.5625 13.753906 -8.09375 15.296875 -8.09375 Z M 15.296875 -8.09375 "/></g></g></g><path fill="#000000" d="M 128.710938 69.457031 L 120.839844 69.457031 C 120.5625 69.457031 120.304688 69.347656 120.117188 69.140625 L 112.535156 61.261719 L 94.097656 61.261719 C 93.546875 61.261719 93.09375 60.8125 93.09375 60.253906 C 93.09375 59.703125 93.546875 59.246094 94.097656 59.246094 L 112.96875 59.246094 C 113.234375 59.246094 113.503906 59.367188 113.691406 59.5625 L 121.261719 67.441406 L 128.710938 67.441406 C 129.265625 67.441406 129.714844 67.890625 129.714844 68.449219 C 129.714844 69 129.265625 69.457031 128.710938 69.457031 " fill-opacity="1" fill-rule="nonzero"/><path fill="#000000" d="M 120.996094 43.277344 L 101.394531 43.277344 C 100.84375 43.277344 100.386719 42.820312 100.386719 42.269531 C 100.386719 41.710938 100.84375 41.261719 101.394531 41.261719 L 120.730469 41.261719 L 127.84375 37.152344 C 128.324219 36.878906 128.945312 37.042969 129.21875 37.523438 C 129.496094 38.011719 129.332031 38.625 128.851562 38.898438 L 121.5 43.144531 C 121.351562 43.230469 121.167969 43.277344 120.996094 43.277344 " fill-opacity="1" fill-rule="nonzero"/><g clip-path="url(#a4f5fba4f0)"><path fill="#000000" d="M 109.109375 34.328125 L 93.753906 34.328125 C 93.195312 34.328125 92.746094 33.871094 92.746094 33.320312 C 92.746094 32.761719 93.195312 32.3125 93.753906 32.3125 L 108.558594 32.3125 L 116.269531 19.976562 C 116.453125 19.6875 116.773438 19.503906 117.121094 19.503906 L 124.566406 19.503906 C 125.125 19.503906 125.570312 19.960938 125.570312 20.511719 C 125.570312 21.070312 125.125 21.519531 124.566406 21.519531 L 117.679688 21.519531 L 109.964844 33.855469 C 109.785156 34.144531 109.460938 34.328125 109.109375 34.328125 " fill-opacity="1" fill-rule="nonzero"/></g><g clip-path="url(#4699098338)"><path fill="#000000" d="M 132.945312 65.214844 C 131.164062 65.214844 129.714844 66.664062 129.714844 68.449219 C 129.714844 70.226562 131.164062 71.675781 132.945312 71.675781 C 134.722656 71.675781 136.171875 70.226562 136.171875 68.449219 C 136.171875 66.664062 134.722656 65.214844 132.945312 65.214844 Z M 132.945312 73.691406 C 130.054688 73.691406 127.703125 71.339844 127.703125 68.449219 C 127.703125 65.554688 130.054688 63.199219 132.945312 63.199219 C 135.832031 63.199219 138.183594 65.554688 138.183594 68.449219 C 138.183594 71.339844 135.832031 73.691406 132.945312 73.691406 " fill-opacity="1" fill-rule="nonzero"/></g><path fill="#000000" d="M 132.578125 34.800781 C 130.800781 34.800781 129.355469 36.246094 129.355469 38.027344 C 129.355469 39.8125 130.800781 41.261719 132.578125 41.261719 C 134.363281 41.261719 135.808594 39.8125 135.808594 38.027344 C 135.808594 36.246094 134.363281 34.800781 132.578125 34.800781 Z M 132.578125 43.277344 C 129.691406 43.277344 127.339844 40.921875 127.339844 38.027344 C 127.339844 35.136719 129.691406 32.785156 132.578125 32.785156 C 135.472656 32.785156 137.820312 35.136719 137.820312 38.027344 C 137.820312 40.921875 135.472656 43.277344 132.578125 43.277344 " fill-opacity="1" fill-rule="nonzero"/><g clip-path="url(#dd6bb1b07a)"><path fill="#000000" d="M 128.804688 17.285156 C 127.019531 17.285156 125.570312 18.734375 125.570312 20.511719 C 125.570312 22.300781 127.019531 23.746094 128.804688 23.746094 C 130.582031 23.746094 132.027344 22.300781 132.027344 20.511719 C 132.027344 18.734375 130.582031 17.285156 128.804688 17.285156 Z M 128.804688 25.761719 C 125.910156 25.761719 123.558594 23.410156 123.558594 20.511719 C 123.558594 17.625 125.910156 15.269531 128.804688 15.269531 C 131.6875 15.269531 134.039062 17.625 134.039062 20.511719 C 134.039062 23.410156 131.6875 25.761719 128.804688 25.761719 " fill-opacity="1" fill-rule="nonzero"/></g><path fill="#000000" d="M 116.355469 52.730469 L 98.621094 52.730469 C 98.070312 52.730469 97.613281 52.28125 97.613281 51.722656 C 97.613281 51.164062 98.070312 50.714844 98.621094 50.714844 L 116.355469 50.714844 C 116.914062 50.714844 117.363281 51.164062 117.363281 51.722656 C 117.363281 52.28125 116.914062 52.730469 116.355469 52.730469 " fill-opacity="1" fill-rule="nonzero"/><path fill="#000000" d="M 119.925781 49.15625 C 118.519531 49.15625 117.363281 50.304688 117.363281 51.722656 C 117.363281 53.140625 118.519531 54.289062 119.925781 54.289062 C 121.34375 54.289062 122.488281 53.140625 122.488281 51.722656 C 122.488281 50.304688 121.34375 49.15625 119.925781 49.15625 Z M 119.925781 56.304688 C 117.402344 56.304688 115.351562 54.25 115.351562 51.722656 C 115.351562 49.195312 117.402344 47.140625 119.925781 47.140625 C 122.449219 47.140625 124.503906 49.195312 124.503906 51.722656 C 124.503906 54.25 122.449219 56.304688 119.925781 56.304688 " fill-opacity="1" fill-rule="nonzero"/><g fill="#ffffff" fill-opacity="1"><g transform="translate(109.36393, 56.075079)"><g><path d="M 41.046875 -25.171875 L 32.796875 0 L 26.546875 0 L 21 -17.046875 L 15.28125 0 L 9.0625 0 L 0.796875 -25.171875 L 6.828125 -25.171875 L 12.515625 -7.484375 L 18.453125 -25.171875 L 23.84375 -25.171875 L 29.609375 -7.34375 L 35.46875 -25.171875 Z M 41.046875 -25.171875 "/></g></g></g><g fill="#ffffff" fill-opacity="1"><g transform="translate(149.070088, 56.075079)"><g><path d="M 2.59375 -19.34375 L 8.203125 -19.34375 L 8.203125 0 L 2.59375 0 Z M 5.390625 -22.015625 C 4.503906 -22.015625 3.78125 -22.300781 3.21875 -22.875 C 2.65625 -23.445312 2.375 -24.175781 2.375 -25.0625 C 2.375 -25.925781 2.65625 -26.644531 3.21875 -27.21875 C 3.78125 -27.800781 4.503906 -28.09375 5.390625 -28.09375 C 6.285156 -28.09375 7.015625 -27.800781 7.578125 -27.21875 C 8.140625 -26.644531 8.421875 -25.925781 8.421875 -25.0625 C 8.421875 -24.175781 8.140625 -23.445312 7.578125 -22.875 C 7.015625 -22.300781 6.285156 -22.015625 5.390625 -22.015625 Z M 5.390625 -22.015625 "/></g></g></g><g fill="#ffffff" fill-opacity="1"><g transform="translate(157.773796, 56.075079)"><g><path d="M 9.09375 0.28125 C 7.488281 0.28125 5.921875 0.0820312 4.390625 -0.3125 C 2.859375 -0.707031 1.632812 -1.203125 0.71875 -1.796875 L 2.59375 -5.828125 C 3.457031 -5.273438 4.5 -4.820312 5.71875 -4.46875 C 6.9375 -4.125 8.132812 -3.953125 9.3125 -3.953125 C 11.6875 -3.953125 12.875 -4.539062 12.875 -5.71875 C 12.875 -6.269531 12.550781 -6.664062 11.90625 -6.90625 C 11.257812 -7.144531 10.265625 -7.347656 8.921875 -7.515625 C 7.335938 -7.753906 6.03125 -8.03125 5 -8.34375 C 3.96875 -8.65625 3.070312 -9.207031 2.3125 -10 C 1.5625 -10.789062 1.1875 -11.914062 1.1875 -13.375 C 1.1875 -14.601562 1.539062 -15.691406 2.25 -16.640625 C 2.957031 -17.585938 3.988281 -18.320312 5.34375 -18.84375 C 6.695312 -19.375 8.296875 -19.640625 10.140625 -19.640625 C 11.503906 -19.640625 12.863281 -19.488281 14.21875 -19.1875 C 15.582031 -18.882812 16.707031 -18.472656 17.59375 -17.953125 L 15.71875 -13.953125 C 14.019531 -14.910156 12.160156 -15.390625 10.140625 -15.390625 C 8.941406 -15.390625 8.039062 -15.222656 7.4375 -14.890625 C 6.84375 -14.554688 6.546875 -14.125 6.546875 -13.59375 C 6.546875 -13 6.867188 -12.582031 7.515625 -12.34375 C 8.160156 -12.101562 9.191406 -11.875 10.609375 -11.65625 C 12.191406 -11.394531 13.484375 -11.113281 14.484375 -10.8125 C 15.492188 -10.507812 16.367188 -9.960938 17.109375 -9.171875 C 17.859375 -8.378906 18.234375 -7.273438 18.234375 -5.859375 C 18.234375 -4.660156 17.875 -3.59375 17.15625 -2.65625 C 16.4375 -1.726562 15.382812 -1.003906 14 -0.484375 C 12.625 0.0234375 10.988281 0.28125 9.09375 0.28125 Z M 9.09375 0.28125 "/></g></g></g><g fill="#ffffff" fill-opacity="1"><g transform="translate(174.74962, 56.075079)"><g><path d="M 21.546875 -9.609375 C 21.546875 -9.535156 21.507812 -9.03125 21.4375 -8.09375 L 6.796875 -8.09375 C 7.054688 -6.894531 7.675781 -5.945312 8.65625 -5.25 C 9.644531 -4.550781 10.875 -4.203125 12.34375 -4.203125 C 13.34375 -4.203125 14.234375 -4.351562 15.015625 -4.65625 C 15.796875 -4.957031 16.519531 -5.429688 17.1875 -6.078125 L 20.171875 -2.84375 C 18.347656 -0.757812 15.6875 0.28125 12.1875 0.28125 C 10.007812 0.28125 8.082031 -0.140625 6.40625 -0.984375 C 4.726562 -1.835938 3.429688 -3.019531 2.515625 -4.53125 C 1.609375 -6.039062 1.15625 -7.753906 1.15625 -9.671875 C 1.15625 -11.566406 1.601562 -13.273438 2.5 -14.796875 C 3.394531 -16.316406 4.628906 -17.503906 6.203125 -18.359375 C 7.773438 -19.210938 9.53125 -19.640625 11.46875 -19.640625 C 13.363281 -19.640625 15.078125 -19.226562 16.609375 -18.40625 C 18.148438 -17.59375 19.359375 -16.425781 20.234375 -14.90625 C 21.109375 -13.382812 21.546875 -11.617188 21.546875 -9.609375 Z M 11.515625 -15.390625 C 10.242188 -15.390625 9.175781 -15.03125 8.3125 -14.3125 C 7.445312 -13.59375 6.914062 -12.609375 6.71875 -11.359375 L 16.265625 -11.359375 C 16.066406 -12.585938 15.535156 -13.566406 14.671875 -14.296875 C 13.804688 -15.023438 12.753906 -15.390625 11.515625 -15.390625 Z M 11.515625 -15.390625 "/></g></g></g></svg>